# xmcd
#
# Track frame offsets:
#	150
#	15851
#	29201
#	42915
#	58300
#	73634
#	89758
#	103496
#	112798
#	126540
#	138405
#	155859
#	170956
#	183197
#
# Disc length: 2661
#
# Revision: 3
# Processed by: cddbd v1.5.1PL0 Copyright (c) Steve Scherf et al.
# Submitted via: audiograbber 1.80.04
# Normalized: r2:DSETVAR1
#
DISCID=d60a630e
DTITLE=Various Artist - Hot Hits Country Vol. 75
DYEAR=1998
DGENRE=Country
TTITLE0=Alan Jackson - A House With No Curtains
TTITLE1=Trisha Yearwood - Perfect Love
TTITLE2=George Strait - Round About Way
TTITLE3=Collin Raye - Little Red Rodeo
TTITLE4=James T Horn - Texas Diary
TTITLE5=The Kinleys - Just Between You And Me
TTITLE6=Clay Walker - Then What
TTITLE7=Sara Evans - Shame About That
TTITLE8=Jason Sellers - That Does It
TTITLE9=Sherrie Austin - Put Your Heart Into It
TTITLE10=Melodie Crittenden - Broken Road
TTITLE11=Michael Peterson - Too Good To Be True
TTITLE12=River Road - Somebody Will
TTITLE13=Mindy McCready - You'll Never Know
EXTD=
EXTT0=
EXTT1=
EXTT2=
EXTT3=
EXTT4=
EXTT5=
EXTT6=
EXTT7=
EXTT8=
EXTT9=
EXTT10=
EXTT11=
EXTT12=
EXTT13=
PLAYORDER=
